<svg width="12" height="12" viewBox="0 0 12 12" fill="none" xmlns="http://www.w3.org/2000/svg">
<path fill-rule="evenodd" clip-rule="evenodd" d="M5.85487 11.3333C5.33851 11.3333 4.91992 10.9147 4.91992 10.3984L4.91992 0.93495C4.91992 0.41859 5.33851 -1.90735e-06 5.85487 -1.90735e-06C6.37123 -1.90735e-06 6.78983 0.41859 6.78983 0.93495L6.78983 10.3984C6.78983 10.9147 6.37123 11.3333 5.85487 11.3333Z" fill="#768989"/>
<path fill-rule="evenodd" clip-rule="evenodd" d="M11.3334 5.66982C11.3334 6.18618 10.9148 6.60477 10.3984 6.60477H0.934969C0.418609 6.60477 1.71661e-05 6.18618 1.71661e-05 5.66982C1.71661e-05 5.15346 0.418609 4.73487 0.934969 4.73487H10.3984C10.9148 4.73487 11.3334 5.15346 11.3334 5.66982Z" fill="#768989"/>
</svg>
