<svg width="250" height="55" viewBox="0 0 250 55" fill="none" xmlns="http://www.w3.org/2000/svg">
<path d="M23.9783 0V28.8033L22.2151 30.3696C22.2151 30.3696 22.2151 11.1807 22.2151 1.74698C22.2117 1.73026 22.2057 1.71418 22.1973 1.69933H1.79221V22.1469H15.6241V23.9137H0.122164C0.0201881 23.7484 -0.0198313 23.5521 0.0092437 23.3599V0H23.9783Z" fill="black"/>
<path d="M55 0V23.9098H24.525L26.1852 22.1588H53.2209V1.69536H32.8V15.5679H31.0329V0H55Z" fill="black"/>
<path d="M54.8812 55C46.9727 55 31.0428 54.9603 31.0428 54.9603V24.4656L32.7882 26.1272V53.2173H53.229V32.7697H39.3772V31.114L39.4783 31.0128H54.9208" fill="black"/>
<path d="M0.108286 54.9206C0.108286 54.9206 0.0904541 31.0644 0.0904541 31.0089H30.4941C30.4695 31.0697 30.4383 31.1276 30.401 31.1816C29.8839 31.7037 29.3629 32.2238 28.83 32.7578H1.78626V53.0466L22.2013 53.2054L22.2151 39.4142L23.9644 39.4499L23.8951 55H16.4898" fill="black"/>
<path d="M4.58547 35.5688L4.60529 50.4122L19.5208 50.44C19.5208 50.44 19.497 39.3983 19.503 39.3586H21.1334C21.1909 39.6802 21.2127 51.0713 21.1572 52.179H2.93128C2.90156 52.1492 2.83618 33.8239 2.83618 33.8239H30.4722L28.9825 35.5708L4.58547 35.5688Z" fill="black"/>
<path d="M35.5281 48.6215C35.5162 48.9153 35.5281 49.2171 35.5281 49.503V50.3844L50.4298 50.4241C50.4298 50.4241 50.4298 40.514 50.4298 35.5986C50.3723 35.5649 39.3852 35.5093 39.3852 35.5093V33.8218H52.187V52.173H33.858V24.4914L35.5221 26.0319C35.5221 26.0319 35.5221 38.5685 35.5221 44.6313" fill="black"/>
<path d="M15.628 21.1166H2.82825V2.74756H21.1611V28.8589L19.4951 30.5265V4.52034H4.59537V19.4292H15.628V21.1166Z" fill="black"/>
<path d="M50.4257 19.4311V4.50835H35.5299V15.5659H33.8559V2.73755H52.1829V21.1165H24.5409L26.0881 19.4311H50.4257Z" fill="black"/>
<path d="M24.5389 18.373L26.1713 16.6221H47.6918V7.34721L38.3411 7.31941V15.558L36.6394 15.5759L36.6691 5.5506H49.348L49.3737 18.369L24.5389 18.373Z" fill="black"/>
<path d="M18.3778 28.857L16.6859 30.3697L16.6839 7.32149H7.34514L7.31939 16.6083H15.6221V18.3433L5.63745 18.3771V5.54871L18.4491 5.56856L18.3778 28.857Z" fill="black"/>
<path d="M36.6393 41.1115C36.6571 39.7477 36.6393 38.3839 36.6393 37.0181V24.5113L38.3192 26.1928V47.5694L38.4302 47.6806H47.662C47.7234 47.3491 47.7472 39.6703 47.6878 38.3124H39.3672V36.625H49.3598V49.368H36.6432C36.6432 49.2767 36.6432 49.1695 36.6432 49.0722" fill="black"/>
<path d="M18.3679 39.3566L18.3263 49.372H5.6355V36.621H30.4386C30.4485 36.621 30.4604 36.6389 30.4644 36.6488C30.4683 36.6587 30.4545 36.6687 30.4465 36.6766C29.9097 37.2166 29.3708 37.7566 28.8201 38.3065H7.31545V47.6766H16.678C16.678 44.9351 16.7236 39.3606 16.7236 39.3606L18.3679 39.3566Z" fill="black"/>
<path d="M59.0989 33V0.739042H63.0291V16.6766H63.0773L77.9058 0.739042H82.7521L67.7067 16.7972L83.9095 33H78.7979L63.0773 17.2071H63.0291V33H59.0989ZM92.9271 0.739042V29.4556H108.672V33H88.997V0.739042H92.9271ZM118.63 29.4556H135.17V33H114.7V0.739042H134.278V4.28341H118.63V14.6995H132.542V18.2439H118.63V29.4556ZM152.892 27.9848C154.049 24.4646 155.295 20.9122 156.629 17.3276L162.778 0.739042H166.852L154.556 33H151.108L138.811 0.739042H142.886L149.034 17.3276C150.384 20.9122 151.638 24.4646 152.796 27.9848H152.892ZM175.87 29.4556H192.41V33H171.94V0.739042H191.518V4.28341H175.87V14.6995H189.782V18.2439H175.87V29.4556ZM203.116 19.6423V33H199.186V0.739042H207.552C208.967 0.739042 210.164 0.795302 211.145 0.907822C212.142 1.00427 213.05 1.16501 213.87 1.39005C216.12 2.00087 217.84 3.04569 219.029 4.52452C220.219 5.98727 220.814 7.81974 220.814 10.0219C220.814 11.3239 220.605 12.4893 220.187 13.518C219.769 14.5468 219.182 15.4389 218.427 16.1944C217.671 16.9499 216.763 17.5687 215.702 18.051C214.657 18.5332 213.492 18.8868 212.206 19.1119V19.2083L222.743 33H217.8L207.866 19.6423H203.116ZM203.116 4.28341V16.098H206.998C208.203 16.098 209.232 16.0578 210.084 15.9774C210.936 15.897 211.7 15.7524 212.375 15.5434C213.741 15.1255 214.794 14.4584 215.533 13.5422C216.273 12.6259 216.642 11.4284 216.642 9.94957C216.626 8.56719 216.273 7.45807 215.581 6.62221C214.89 5.77027 213.934 5.15945 212.712 4.78975C212.134 4.61293 211.442 4.48434 210.639 4.40396C209.835 4.32359 208.814 4.28341 207.576 4.28341H203.116Z" fill="#1D1D1B"/>
<path d="M71.2461 48.6602H67.6719V46.9375H73.1562V54.5195C72.9922 54.6055 72.75 54.6953 72.4297 54.7891C72.1172 54.875 71.7578 54.957 71.3516 55.0352C70.9453 55.1133 70.5078 55.1758 70.0391 55.2227C69.5781 55.2695 69.1211 55.293 68.668 55.293C67.3242 55.293 66.1367 55.1094 65.1055 54.7422C64.082 54.375 63.2227 53.8555 62.5273 53.1836C61.832 52.5117 61.3047 51.6953 60.9453 50.7344C60.5859 49.7734 60.4062 48.7031 60.4062 47.5234C60.4062 46.2422 60.6133 45.0781 61.0273 44.0312C61.4492 42.9844 62.0391 42.0898 62.7969 41.3477C63.5625 40.6055 64.4727 40.0352 65.5273 39.6367C66.5898 39.2305 67.7578 39.0273 69.0312 39.0273C69.375 39.0273 69.7188 39.043 70.0625 39.0742C70.4062 39.0977 70.7344 39.1367 71.0469 39.1914C71.3594 39.2383 71.6484 39.2969 71.9141 39.3672C72.1797 39.4375 72.4023 39.5117 72.582 39.5898V41.2773C72.1133 41.1211 71.5742 40.9922 70.9648 40.8906C70.3555 40.7812 69.7461 40.7266 69.1367 40.7266C68.2461 40.7266 67.3945 40.8633 66.582 41.1367C65.7773 41.4023 65.0664 41.8086 64.4492 42.3555C63.832 42.9023 63.3398 43.5898 62.9727 44.418C62.6055 45.2383 62.4219 46.2031 62.4219 47.3125C62.4219 48.3984 62.5703 49.3359 62.8672 50.125C63.1719 50.9141 63.5977 51.5664 64.1445 52.082C64.6992 52.5977 65.3672 52.9805 66.1484 53.2305C66.9375 53.4727 67.8125 53.5938 68.7734 53.5938C69.2188 53.5938 69.6562 53.5703 70.0859 53.5234C70.5234 53.4766 70.9102 53.4102 71.2461 53.3242V48.6602ZM88.543 48.5078V55H86.6328V39.3203H90.6992C91.3867 39.3203 91.9688 39.3477 92.4453 39.4023C92.9297 39.4492 93.3711 39.5273 93.7695 39.6367C94.8633 39.9336 95.6992 40.4414 96.2773 41.1602C96.8555 41.8711 97.1445 42.7617 97.1445 43.832C97.1445 44.4648 97.043 45.0312 96.8398 45.5312C96.6367 46.0312 96.3516 46.4648 95.9844 46.832C95.6172 47.1992 95.1758 47.5 94.6602 47.7344C94.1523 47.9688 93.5859 48.1406 92.9609 48.25V48.2969L98.082 55H95.6797L90.8516 48.5078H88.543ZM88.543 41.043V46.7852H90.4297C91.0156 46.7852 91.5156 46.7656 91.9297 46.7266C92.3438 46.6875 92.7148 46.6172 93.043 46.5156C93.707 46.3125 94.2188 45.9883 94.5781 45.543C94.9375 45.0977 95.1172 44.5156 95.1172 43.7969C95.1094 43.125 94.9375 42.5859 94.6016 42.1797C94.2656 41.7656 93.8008 41.4688 93.207 41.2891C92.9258 41.2031 92.5898 41.1406 92.1992 41.1016C91.8086 41.0625 91.3125 41.043 90.7109 41.043H88.543ZM121.625 47.1719C121.625 46.1172 121.488 45.1875 121.215 44.3828C120.941 43.5781 120.562 42.9062 120.078 42.3672C119.602 41.8281 119.035 41.4219 118.379 41.1484C117.73 40.8672 117.031 40.7266 116.281 40.7266C115.531 40.7266 114.828 40.8672 114.172 41.1484C113.523 41.4219 112.957 41.8281 112.473 42.3672C111.996 42.9062 111.621 43.5781 111.348 44.3828C111.074 45.1875 110.938 46.1172 110.938 47.1719C110.938 48.2266 111.074 49.1562 111.348 49.9609C111.629 50.7578 112.008 51.4258 112.484 51.9648C112.969 52.5039 113.535 52.9102 114.184 53.1836C114.84 53.457 115.547 53.5938 116.305 53.5938C117.055 53.5938 117.75 53.457 118.391 53.1836C119.039 52.9102 119.602 52.5039 120.078 51.9648C120.562 51.4258 120.941 50.7578 121.215 49.9609C121.488 49.1562 121.625 48.2266 121.625 47.1719ZM123.641 47.1719C123.641 48.3594 123.469 49.4492 123.125 50.4414C122.781 51.4336 122.289 52.2891 121.648 53.0078C121.008 53.7266 120.234 54.2891 119.328 54.6953C118.43 55.0938 117.422 55.293 116.305 55.293C115.148 55.293 114.113 55.0938 113.199 54.6953C112.285 54.2891 111.512 53.7266 110.879 53.0078C110.246 52.2891 109.762 51.4336 109.426 50.4414C109.09 49.4492 108.922 48.3594 108.922 47.1719C108.922 45.9766 109.094 44.8828 109.438 43.8906C109.789 42.8906 110.281 42.0312 110.914 41.3125C111.555 40.5938 112.328 40.0352 113.234 39.6367C114.141 39.2305 115.156 39.0273 116.281 39.0273C117.43 39.0273 118.457 39.2305 119.363 39.6367C120.277 40.0352 121.051 40.5938 121.684 41.3125C122.316 42.0312 122.801 42.8906 123.137 43.8906C123.473 44.8828 123.641 45.9766 123.641 47.1719ZM142.004 53.5938C142.574 53.5938 143.078 53.5273 143.516 53.3945C143.961 53.2617 144.348 53.0742 144.676 52.832C145.004 52.5898 145.277 52.3008 145.496 51.9648C145.715 51.6211 145.883 51.2422 146 50.8281C146.078 50.5703 146.133 50.2852 146.164 49.9727C146.195 49.6523 146.211 49.3438 146.211 49.0469V39.3203H148.121V49C148.121 49.3672 148.102 49.75 148.062 50.1484C148.023 50.5469 147.961 50.918 147.875 51.2617C147.727 51.8398 147.504 52.375 147.207 52.8672C146.91 53.3594 146.523 53.7852 146.047 54.1445C145.57 54.5039 144.996 54.7852 144.324 54.9883C143.66 55.1914 142.879 55.293 141.98 55.293C141.121 55.293 140.367 55.1992 139.719 55.0117C139.07 54.8242 138.512 54.5664 138.043 54.2383C137.582 53.9023 137.203 53.5078 136.906 53.0547C136.609 52.5938 136.379 52.0938 136.215 51.5547C136.098 51.1641 136.012 50.7461 135.957 50.3008C135.91 49.8555 135.887 49.4219 135.887 49V39.3203H137.797V49.0469C137.797 49.3984 137.82 49.7617 137.867 50.1367C137.922 50.5039 138.004 50.8398 138.113 51.1445C138.387 51.9023 138.84 52.5 139.473 52.9375C140.113 53.375 140.957 53.5938 142.004 53.5938ZM163.566 55H161.656V39.3203H166.004C166.652 39.3203 167.25 39.3594 167.797 39.4375C168.352 39.5156 168.859 39.6367 169.32 39.8008C170.258 40.1367 170.969 40.6406 171.453 41.3125C171.938 41.9766 172.18 42.7969 172.18 43.7734C172.18 44.5703 172.02 45.2734 171.699 45.8828C171.387 46.4844 170.93 46.9883 170.328 47.3945C169.727 47.8008 168.992 48.1094 168.125 48.3203C167.266 48.5234 166.289 48.625 165.195 48.625C164.672 48.625 164.129 48.6016 163.566 48.5547V55ZM163.566 46.8086C163.824 46.8398 164.094 46.8633 164.375 46.8789C164.656 46.8945 164.922 46.9023 165.172 46.9023C166.07 46.9023 166.836 46.832 167.469 46.6914C168.102 46.5508 168.617 46.3477 169.016 46.082C169.414 45.8086 169.703 45.4805 169.883 45.0977C170.062 44.707 170.152 44.2656 170.152 43.7734C170.152 43.1641 170.004 42.6641 169.707 42.2734C169.418 41.8828 169.004 41.5859 168.465 41.3828C168.129 41.2578 167.742 41.1719 167.305 41.125C166.867 41.0703 166.359 41.043 165.781 41.043H163.566V46.8086Z" fill="#1D1D1B"/>
</svg>
