<svg width="250" height="55" viewBox="0 0 250 55" fill="none" xmlns="http://www.w3.org/2000/svg">
<path d="M23.9783 0V28.8033L22.2151 30.3696C22.2151 30.3696 22.2151 11.1807 22.2151 1.74698C22.2117 1.73026 22.2057 1.71418 22.1973 1.69933H1.79221V22.1469H15.6241V23.9137H0.122164C0.0201881 23.7484 -0.0198313 23.5521 0.0092437 23.3599V0H23.9783Z" fill="black"/>
<path d="M55 0V23.9098H24.525L26.1852 22.1588H53.2209V1.69536H32.8V15.5679H31.0329V0H55Z" fill="black"/>
<path d="M54.8812 55C46.9727 55 31.0428 54.9603 31.0428 54.9603V24.4656L32.7882 26.1272V53.2173H53.229V32.7697H39.3772V31.114L39.4783 31.0128H54.9208" fill="black"/>
<path d="M0.108286 54.9206C0.108286 54.9206 0.0904541 31.0644 0.0904541 31.0089H30.4941C30.4695 31.0697 30.4383 31.1276 30.401 31.1816C29.8839 31.7037 29.3629 32.2238 28.83 32.7578H1.78626V53.0466L22.2013 53.2054L22.2151 39.4142L23.9644 39.4499L23.8951 55H16.4898" fill="black"/>
<path d="M4.58547 35.5688L4.60529 50.4122L19.5208 50.44C19.5208 50.44 19.497 39.3983 19.503 39.3586H21.1334C21.1909 39.6802 21.2127 51.0713 21.1572 52.179H2.93128C2.90156 52.1492 2.83618 33.8239 2.83618 33.8239H30.4722L28.9825 35.5708L4.58547 35.5688Z" fill="black"/>
<path d="M35.5281 48.6215C35.5162 48.9153 35.5281 49.2171 35.5281 49.503V50.3844L50.4298 50.4241C50.4298 50.4241 50.4298 40.514 50.4298 35.5986C50.3723 35.5649 39.3852 35.5093 39.3852 35.5093V33.8218H52.187V52.173H33.858V24.4914L35.5221 26.0319C35.5221 26.0319 35.5221 38.5685 35.5221 44.6313" fill="black"/>
<path d="M15.628 21.1166H2.82825V2.74756H21.1611V28.8589L19.4951 30.5265V4.52034H4.59537V19.4292H15.628V21.1166Z" fill="black"/>
<path d="M50.4257 19.4311V4.50835H35.5299V15.5659H33.8559V2.73755H52.1829V21.1165H24.5409L26.0881 19.4311H50.4257Z" fill="black"/>
<path d="M24.5389 18.373L26.1713 16.6221H47.6918V7.34721L38.3411 7.31941V15.558L36.6394 15.5759L36.6691 5.5506H49.348L49.3737 18.369L24.5389 18.373Z" fill="black"/>
<path d="M18.3778 28.857L16.6859 30.3697L16.6839 7.32149H7.34514L7.31939 16.6083H15.6221V18.3433L5.63745 18.3771V5.54871L18.4491 5.56856L18.3778 28.857Z" fill="black"/>
<path d="M36.6393 41.1115C36.6571 39.7477 36.6393 38.3839 36.6393 37.0181V24.5113L38.3192 26.1928V47.5694L38.4302 47.6806H47.662C47.7234 47.3491 47.7472 39.6703 47.6878 38.3124H39.3672V36.625H49.3598V49.368H36.6432C36.6432 49.2767 36.6432 49.1695 36.6432 49.0722" fill="black"/>
<path d="M18.3679 39.3566L18.3263 49.372H5.6355V36.621H30.4386C30.4485 36.621 30.4604 36.6389 30.4644 36.6488C30.4683 36.6587 30.4545 36.6687 30.4465 36.6766C29.9097 37.2166 29.3708 37.7566 28.8201 38.3065H7.31545V47.6766H16.678C16.678 44.9351 16.7236 39.3606 16.7236 39.3606L18.3679 39.3566Z" fill="black"/>
<path d="M80.0989 33V0.739042H84.0291V16.6766H84.0773L98.9058 0.739042H103.752L88.7067 16.7972L104.909 33H99.7979L84.0773 17.2071H84.0291V33H80.0989ZM113.927 0.739042V29.4556H129.672V33H109.997V0.739042H113.927ZM139.63 29.4556H156.17V33H135.7V0.739042H155.278V4.28341H139.63V14.6995H153.542V18.2439H139.63V29.4556ZM173.892 27.9848C175.049 24.4646 176.295 20.9122 177.629 17.3276L183.778 0.739042H187.852L175.556 33H172.108L159.811 0.739042H163.886L170.034 17.3276C171.384 20.9122 172.638 24.4646 173.796 27.9848H173.892ZM196.87 29.4556H213.41V33H192.94V0.739042H212.518V4.28341H196.87V14.6995H210.782V18.2439H196.87V29.4556ZM224.116 19.6423V33H220.186V0.739042H228.552C229.967 0.739042 231.164 0.795302 232.145 0.907822C233.142 1.00427 234.05 1.16501 234.87 1.39005C237.12 2.00087 238.84 3.04569 240.029 4.52452C241.219 5.98727 241.814 7.81974 241.814 10.0219C241.814 11.3239 241.605 12.4893 241.187 13.518C240.769 14.5468 240.182 15.4389 239.427 16.1944C238.671 16.9499 237.763 17.5687 236.702 18.051C235.657 18.5332 234.492 18.8868 233.206 19.1119V19.2083L243.743 33H238.8L228.866 19.6423H224.116ZM224.116 4.28341V16.098H227.998C229.203 16.098 230.232 16.0578 231.084 15.9774C231.936 15.897 232.7 15.7524 233.375 15.5434C234.741 15.1255 235.794 14.4584 236.533 13.5422C237.273 12.6259 237.642 11.4284 237.642 9.94957C237.626 8.56719 237.273 7.45807 236.581 6.62221C235.89 5.77027 234.934 5.15945 233.712 4.78975C233.134 4.61293 232.442 4.48434 231.639 4.40396C230.835 4.32359 229.814 4.28341 228.576 4.28341H224.116Z" fill="#1D1D1B"/>
<path d="M91.2461 47.6602H87.6719V45.9375H93.1562V53.5195C92.9922 53.6055 92.75 53.6953 92.4297 53.7891C92.1172 53.875 91.7578 53.957 91.3516 54.0352C90.9453 54.1133 90.5078 54.1758 90.0391 54.2227C89.5781 54.2695 89.1211 54.293 88.668 54.293C87.3242 54.293 86.1367 54.1094 85.1055 53.7422C84.082 53.375 83.2227 52.8555 82.5273 52.1836C81.832 51.5117 81.3047 50.6953 80.9453 49.7344C80.5859 48.7734 80.4062 47.7031 80.4062 46.5234C80.4062 45.2422 80.6133 44.0781 81.0273 43.0312C81.4492 41.9844 82.0391 41.0898 82.7969 40.3477C83.5625 39.6055 84.4727 39.0352 85.5273 38.6367C86.5898 38.2305 87.7578 38.0273 89.0312 38.0273C89.375 38.0273 89.7188 38.043 90.0625 38.0742C90.4062 38.0977 90.7344 38.1367 91.0469 38.1914C91.3594 38.2383 91.6484 38.2969 91.9141 38.3672C92.1797 38.4375 92.4023 38.5117 92.582 38.5898V40.2773C92.1133 40.1211 91.5742 39.9922 90.9648 39.8906C90.3555 39.7812 89.7461 39.7266 89.1367 39.7266C88.2461 39.7266 87.3945 39.8633 86.582 40.1367C85.7773 40.4023 85.0664 40.8086 84.4492 41.3555C83.832 41.9023 83.3398 42.5898 82.9727 43.418C82.6055 44.2383 82.4219 45.2031 82.4219 46.3125C82.4219 47.3984 82.5703 48.3359 82.8672 49.125C83.1719 49.9141 83.5977 50.5664 84.1445 51.082C84.6992 51.5977 85.3672 51.9805 86.1484 52.2305C86.9375 52.4727 87.8125 52.5938 88.7734 52.5938C89.2188 52.5938 89.6562 52.5703 90.0859 52.5234C90.5234 52.4766 90.9102 52.4102 91.2461 52.3242V47.6602ZM108.543 47.5078V54H106.633V38.3203H110.699C111.387 38.3203 111.969 38.3477 112.445 38.4023C112.93 38.4492 113.371 38.5273 113.77 38.6367C114.863 38.9336 115.699 39.4414 116.277 40.1602C116.855 40.8711 117.145 41.7617 117.145 42.832C117.145 43.4648 117.043 44.0312 116.84 44.5312C116.637 45.0312 116.352 45.4648 115.984 45.832C115.617 46.1992 115.176 46.5 114.66 46.7344C114.152 46.9688 113.586 47.1406 112.961 47.25V47.2969L118.082 54H115.68L110.852 47.5078H108.543ZM108.543 40.043V45.7852H110.43C111.016 45.7852 111.516 45.7656 111.93 45.7266C112.344 45.6875 112.715 45.6172 113.043 45.5156C113.707 45.3125 114.219 44.9883 114.578 44.543C114.938 44.0977 115.117 43.5156 115.117 42.7969C115.109 42.125 114.938 41.5859 114.602 41.1797C114.266 40.7656 113.801 40.4688 113.207 40.2891C112.926 40.2031 112.59 40.1406 112.199 40.1016C111.809 40.0625 111.312 40.043 110.711 40.043H108.543ZM141.625 46.1719C141.625 45.1172 141.488 44.1875 141.215 43.3828C140.941 42.5781 140.562 41.9062 140.078 41.3672C139.602 40.8281 139.035 40.4219 138.379 40.1484C137.73 39.8672 137.031 39.7266 136.281 39.7266C135.531 39.7266 134.828 39.8672 134.172 40.1484C133.523 40.4219 132.957 40.8281 132.473 41.3672C131.996 41.9062 131.621 42.5781 131.348 43.3828C131.074 44.1875 130.938 45.1172 130.938 46.1719C130.938 47.2266 131.074 48.1562 131.348 48.9609C131.629 49.7578 132.008 50.4258 132.484 50.9648C132.969 51.5039 133.535 51.9102 134.184 52.1836C134.84 52.457 135.547 52.5938 136.305 52.5938C137.055 52.5938 137.75 52.457 138.391 52.1836C139.039 51.9102 139.602 51.5039 140.078 50.9648C140.562 50.4258 140.941 49.7578 141.215 48.9609C141.488 48.1562 141.625 47.2266 141.625 46.1719ZM143.641 46.1719C143.641 47.3594 143.469 48.4492 143.125 49.4414C142.781 50.4336 142.289 51.2891 141.648 52.0078C141.008 52.7266 140.234 53.2891 139.328 53.6953C138.43 54.0938 137.422 54.293 136.305 54.293C135.148 54.293 134.113 54.0938 133.199 53.6953C132.285 53.2891 131.512 52.7266 130.879 52.0078C130.246 51.2891 129.762 50.4336 129.426 49.4414C129.09 48.4492 128.922 47.3594 128.922 46.1719C128.922 44.9766 129.094 43.8828 129.438 42.8906C129.789 41.8906 130.281 41.0312 130.914 40.3125C131.555 39.5938 132.328 39.0352 133.234 38.6367C134.141 38.2305 135.156 38.0273 136.281 38.0273C137.43 38.0273 138.457 38.2305 139.363 38.6367C140.277 39.0352 141.051 39.5938 141.684 40.3125C142.316 41.0312 142.801 41.8906 143.137 42.8906C143.473 43.8828 143.641 44.9766 143.641 46.1719ZM162.004 52.5938C162.574 52.5938 163.078 52.5273 163.516 52.3945C163.961 52.2617 164.348 52.0742 164.676 51.832C165.004 51.5898 165.277 51.3008 165.496 50.9648C165.715 50.6211 165.883 50.2422 166 49.8281C166.078 49.5703 166.133 49.2852 166.164 48.9727C166.195 48.6523 166.211 48.3438 166.211 48.0469V38.3203H168.121V48C168.121 48.3672 168.102 48.75 168.062 49.1484C168.023 49.5469 167.961 49.918 167.875 50.2617C167.727 50.8398 167.504 51.375 167.207 51.8672C166.91 52.3594 166.523 52.7852 166.047 53.1445C165.57 53.5039 164.996 53.7852 164.324 53.9883C163.66 54.1914 162.879 54.293 161.98 54.293C161.121 54.293 160.367 54.1992 159.719 54.0117C159.07 53.8242 158.512 53.5664 158.043 53.2383C157.582 52.9023 157.203 52.5078 156.906 52.0547C156.609 51.5938 156.379 51.0938 156.215 50.5547C156.098 50.1641 156.012 49.7461 155.957 49.3008C155.91 48.8555 155.887 48.4219 155.887 48V38.3203H157.797V48.0469C157.797 48.3984 157.82 48.7617 157.867 49.1367C157.922 49.5039 158.004 49.8398 158.113 50.1445C158.387 50.9023 158.84 51.5 159.473 51.9375C160.113 52.375 160.957 52.5938 162.004 52.5938ZM183.566 54H181.656V38.3203H186.004C186.652 38.3203 187.25 38.3594 187.797 38.4375C188.352 38.5156 188.859 38.6367 189.32 38.8008C190.258 39.1367 190.969 39.6406 191.453 40.3125C191.938 40.9766 192.18 41.7969 192.18 42.7734C192.18 43.5703 192.02 44.2734 191.699 44.8828C191.387 45.4844 190.93 45.9883 190.328 46.3945C189.727 46.8008 188.992 47.1094 188.125 47.3203C187.266 47.5234 186.289 47.625 185.195 47.625C184.672 47.625 184.129 47.6016 183.566 47.5547V54ZM183.566 45.8086C183.824 45.8398 184.094 45.8633 184.375 45.8789C184.656 45.8945 184.922 45.9023 185.172 45.9023C186.07 45.9023 186.836 45.832 187.469 45.6914C188.102 45.5508 188.617 45.3477 189.016 45.082C189.414 44.8086 189.703 44.4805 189.883 44.0977C190.062 43.707 190.152 43.2656 190.152 42.7734C190.152 42.1641 190.004 41.6641 189.707 41.2734C189.418 40.8828 189.004 40.5859 188.465 40.3828C188.129 40.2578 187.742 40.1719 187.305 40.125C186.867 40.0703 186.359 40.043 185.781 40.043H183.566V45.8086Z" fill="#1D1D1B"/>
</svg>
