<svg width="10" height="10" viewBox="0 0 10 10" fill="none" xmlns="http://www.w3.org/2000/svg">
<path fill-rule="evenodd" clip-rule="evenodd" d="M2.50002 7.49999C2.37407 7.37405 2.45665 7.08727 2.68445 6.85947L6.85949 2.68442C7.0873 2.45662 7.37407 2.37405 7.50002 2.49999C7.62597 2.62594 7.54339 2.91271 7.31559 3.14052L3.14055 7.31556C2.91274 7.54337 2.62597 7.62594 2.50002 7.49999Z" fill="#768989"/>
<path fill-rule="evenodd" clip-rule="evenodd" d="M2.50004 2.49999C2.62599 2.37405 2.91276 2.45662 3.14057 2.68442L7.31561 6.85947C7.54342 7.08727 7.62599 7.37405 7.50004 7.49999C7.37409 7.62594 7.08732 7.54337 6.85952 7.31556L2.68447 3.14052C2.45667 2.91271 2.37409 2.62594 2.50004 2.49999Z" fill="#768989"/>
</svg>
