<svg width="21" height="19" viewBox="0 0 21 19" fill="none" xmlns="http://www.w3.org/2000/svg">
<ellipse cx="10.1457" cy="9.49315" rx="10.1457" ry="9.49315" fill="#4CDBCA"/>
<path d="M8.83217 11.6651H10.9779V11.485C10.9893 10.452 11.3856 9.96993 12.2801 9.46667C13.3388 8.87864 14.0296 8.09991 14.0296 6.85499C14.0296 5.00086 12.433 3.92017 10.1853 3.92017C8.13012 3.92017 6.45428 4.92669 6.40332 7.0457H8.71327C8.74724 6.18221 9.4323 5.72132 10.174 5.72132C10.9383 5.72132 11.5554 6.1981 11.5554 6.93445C11.5554 7.62843 11.0176 8.08931 10.3212 8.50252C9.37003 9.06406 8.83783 9.63089 8.83217 11.485V11.6651ZM9.94751 15.0555C10.6722 15.0555 11.3006 14.4887 11.3063 13.7841C11.3006 13.0902 10.6722 12.5233 9.94751 12.5233C9.20018 12.5233 8.58306 13.0902 8.58872 13.7841C8.58306 14.4887 9.20018 15.0555 9.94751 15.0555Z" fill="white"/>
</svg>
