<svg width="11" height="7" viewBox="0 0 11 7" fill="none" xmlns="http://www.w3.org/2000/svg">
<path fill-rule="evenodd" clip-rule="evenodd" d="M0.635687 1.22916C0.945618 0.914273 1.45213 0.910254 1.76702 1.22018L6.00219 5.38867C6.31708 5.6986 6.3211 6.20512 6.01117 6.52001C5.70124 6.8349 5.19472 6.83892 4.87984 6.52899L0.644664 2.3605C0.329776 2.05057 0.325757 1.54405 0.635687 1.22916Z" fill="#1A1A1A"/>
<path fill-rule="evenodd" clip-rule="evenodd" d="M4.87984 6.52899C4.56495 6.21905 4.56093 5.71254 4.87086 5.39765L9.03935 1.16248C9.34928 0.847592 9.85579 0.843572 10.1707 1.1535C10.4856 1.46343 10.4896 1.96995 10.1797 2.28484L6.01117 6.52001C5.70124 6.8349 5.19472 6.83892 4.87984 6.52899Z" fill="#1A1A1A"/>
</svg>
