<svg width="11" height="7" viewBox="0 0 11 7" fill="none" xmlns="http://www.w3.org/2000/svg">
<path fill-rule="evenodd" clip-rule="evenodd" d="M10.4363 5.90096C10.1239 6.21338 9.61734 6.21338 9.30492 5.90096L5.10296 1.699C4.79054 1.38658 4.79054 0.880049 5.10296 0.567629C5.41538 0.25521 5.92191 0.25521 6.23433 0.567629L10.4363 4.76959C10.7487 5.08201 10.7487 5.58854 10.4363 5.90096Z" fill="#1A1A1A"/>
<path fill-rule="evenodd" clip-rule="evenodd" d="M6.23433 0.567629C6.54675 0.880049 6.54675 1.38658 6.23433 1.699L2.03237 5.90096C1.71995 6.21338 1.21342 6.21338 0.900999 5.90096C0.588579 5.58854 0.588579 5.08201 0.900999 4.76959L5.10296 0.567629C5.41538 0.25521 5.92191 0.25521 6.23433 0.567629Z" fill="#1A1A1A"/>
</svg>
