<svg width="11" height="7" viewBox="0 0 11 7" fill="none" xmlns="http://www.w3.org/2000/svg">
<path fill-rule="evenodd" clip-rule="evenodd" d="M0.900986 0.56765C1.21341 0.255231 1.71994 0.255231 2.03236 0.56765L6.23432 4.76961C6.54674 5.08203 6.54674 5.58856 6.23432 5.90098C5.9219 6.2134 5.41537 6.2134 5.10295 5.90098L0.900986 1.69902C0.588567 1.3866 0.588567 0.88007 0.900986 0.56765Z" fill="#1A1A1A"/>
<path fill-rule="evenodd" clip-rule="evenodd" d="M5.10295 5.90098C4.79053 5.58856 4.79053 5.08203 5.10295 4.76961L9.30491 0.56765C9.61733 0.255231 10.1239 0.255231 10.4363 0.567651C10.7487 0.88007 10.7487 1.3866 10.4363 1.69902L6.23432 5.90098C5.9219 6.2134 5.41537 6.2134 5.10295 5.90098Z" fill="#1A1A1A"/>
</svg>
