<svg width="43" height="43" viewBox="0 0 43 43" fill="none" xmlns="http://www.w3.org/2000/svg">
<path d="M21.5007 5.86401C17.2543 5.86401 16.7214 5.88258 15.0535 5.95848C13.389 6.03471 12.2528 6.29825 11.2586 6.68492C10.2302 7.0843 9.35785 7.61854 8.48876 8.48799C7.61901 9.35711 7.08478 10.2295 6.68411 11.2576C6.29647 12.2521 6.03262 13.3887 5.9577 15.0527C5.8831 16.7205 5.86356 17.2538 5.86356 21.5004C5.86356 25.7469 5.88245 26.2783 5.95802 27.9461C6.03457 29.6108 6.2981 30.747 6.68444 31.7412C7.08413 32.7696 7.61836 33.642 8.48778 34.5111C9.35655 35.3809 10.2289 35.9164 11.2566 36.3158C12.2515 36.7025 13.388 36.966 15.0522 37.0423C16.7201 37.1182 17.2527 37.1367 21.4988 37.1367C25.7456 37.1367 26.2769 37.1182 27.9447 37.0423C29.6093 36.966 30.7468 36.7025 31.7416 36.3158C32.7697 35.9164 33.6407 35.3809 34.5095 34.5111C35.3792 33.642 35.9135 32.7696 36.3141 31.7415C36.6985 30.747 36.9624 29.6104 37.0405 27.9465C37.1155 26.2786 37.135 25.7469 37.135 21.5004C37.135 17.2538 37.1155 16.7209 37.0405 15.053C36.9624 13.3884 36.6985 12.2521 36.3141 11.2579C35.9135 10.2295 35.3792 9.35711 34.5095 8.48799C33.6397 7.61822 32.77 7.08398 31.7406 6.68492C30.7438 6.29825 29.607 6.03471 27.9424 5.95848C26.2746 5.88258 25.7436 5.86401 21.4959 5.86401H21.5007ZM20.0981 8.68182C20.5144 8.68116 20.9789 8.68182 21.5007 8.68182C25.6755 8.68182 26.1703 8.6968 27.8189 8.77173C29.3434 8.84144 30.1708 9.09618 30.722 9.3102C31.4517 9.59361 31.9719 9.9324 32.5188 10.4797C33.0661 11.0269 33.4049 11.5482 33.6889 12.2779C33.9029 12.8284 34.158 13.6558 34.2274 15.1804C34.3023 16.8287 34.3186 17.3238 34.3186 21.4968C34.3186 25.6697 34.3023 26.1649 34.2274 27.8132C34.1577 29.3378 33.9029 30.1652 33.6889 30.7157C33.4055 31.4454 33.0661 31.965 32.5188 32.512C31.9716 33.0592 31.452 33.398 30.722 33.6814C30.1715 33.8964 29.3434 34.1505 27.8189 34.2202C26.1707 34.2951 25.6755 34.3114 21.5007 34.3114C17.3256 34.3114 16.8308 34.2951 15.1825 34.2202C13.658 34.1499 12.8306 33.8951 12.2792 33.6811C11.5495 33.3977 11.0283 33.0589 10.481 32.5116C9.93377 31.9644 9.595 31.4444 9.31094 30.7144C9.09693 30.1639 8.84187 29.3365 8.77248 27.8119C8.69756 26.1636 8.68258 25.6684 8.68258 21.4929C8.68258 17.3173 8.69756 16.8248 8.77248 15.1764C8.84219 13.6519 9.09693 12.8245 9.31094 12.2733C9.59434 11.5436 9.93377 11.0224 10.481 10.4751C11.0283 9.92784 11.5495 9.58905 12.2792 9.30499C12.8303 9.08999 13.658 8.8359 15.1825 8.76586C16.625 8.70071 17.1839 8.68116 20.0981 8.67791V8.68182ZM29.8471 11.2781C28.8112 11.2781 27.9707 12.1176 27.9707 13.1538C27.9707 14.1897 28.8112 15.0302 29.8471 15.0302C30.8829 15.0302 31.7234 14.1897 31.7234 13.1538C31.7234 12.1179 30.8829 11.2775 29.8471 11.2775V11.2781ZM21.5007 13.4705C17.0663 13.4705 13.4711 17.0658 13.4711 21.5004C13.4711 25.9349 17.0663 29.5287 21.5007 29.5287C25.9352 29.5287 29.5291 25.9349 29.5291 21.5004C29.5291 17.0658 25.9348 13.4705 21.5004 13.4705H21.5007ZM21.5007 16.2883C24.3791 16.2883 26.7127 18.6217 26.7127 21.5004C26.7127 24.3788 24.3791 26.7125 21.5007 26.7125C18.6221 26.7125 16.2888 24.3788 16.2888 21.5004C16.2888 18.6217 18.6221 16.2883 21.5007 16.2883Z" fill="#1A1A1A"/>
</svg>
