<svg width="43" height="43" viewBox="0 0 43 43" fill="none" xmlns="http://www.w3.org/2000/svg">
<path fill-rule="evenodd" clip-rule="evenodd" d="M22.1515 3.90918C23.231 3.90918 24.1061 4.78426 24.1061 5.86373C24.1061 7.72125 24.844 9.50269 26.1574 10.8162C27.4709 12.1296 29.2523 12.8675 31.1099 12.8675C32.1893 12.8675 33.0644 13.7426 33.0644 14.8221C33.0644 15.9015 32.1893 16.7766 31.1099 16.7766C28.5391 16.7766 26.0619 15.8695 24.1061 14.2326V27.3637C24.1061 29.1677 23.5711 30.9312 22.5689 32.4312C21.5666 33.9312 20.1421 35.1003 18.4754 35.7906C16.8087 36.481 14.9747 36.6616 13.2054 36.3097C11.4361 35.9577 9.81082 35.089 8.53519 33.8134C7.25957 32.5378 6.39086 30.9125 6.03891 29.1432C5.68697 27.3738 5.8676 25.5399 6.55796 23.8732C7.24833 22.2065 8.41741 20.782 9.91739 19.7797C11.4174 18.7775 13.1809 18.2425 14.9849 18.2425C16.0643 18.2425 16.9394 19.1176 16.9394 20.1971C16.9394 21.2765 16.0643 22.1516 14.9849 22.1516C13.954 22.1516 12.9463 22.4573 12.0892 23.03C11.232 23.6027 10.564 24.4167 10.1695 25.3691C9.775 26.3215 9.67178 27.3695 9.87289 28.3806C10.074 29.3916 10.5704 30.3203 11.2993 31.0493C12.0283 31.7782 12.957 32.2746 13.968 32.4757C14.9791 32.6768 16.0271 32.5736 16.9795 32.1791C17.9318 31.7846 18.7459 31.1166 19.3186 30.2594C19.8913 29.4023 20.197 28.3946 20.197 27.3637V5.86373C20.197 4.78426 21.0721 3.90918 22.1515 3.90918Z" fill="#00F2EA"/>
<path fill-rule="evenodd" clip-rule="evenodd" d="M24.1061 7.81812C25.1855 7.81812 26.0606 8.69319 26.0606 9.77266C26.0606 11.6302 26.7985 13.4116 28.112 14.7251C29.4254 16.0386 31.2069 16.7764 33.0644 16.7764C34.1439 16.7764 35.0189 17.6515 35.0189 18.731C35.0189 19.8105 34.1439 20.6855 33.0644 20.6855C30.4936 20.6855 28.0164 19.7785 26.0606 18.1416V31.2727C26.0606 33.0767 25.5257 34.8402 24.5234 36.3401C23.5212 37.8401 22.0966 39.0092 20.4299 39.6996C18.7632 40.3899 16.9293 40.5706 15.1599 40.2186C13.3906 39.8667 11.7653 38.998 10.4897 37.7223C9.2141 36.4467 8.34539 34.8215 7.99344 33.0521C7.6415 31.2828 7.82213 29.4488 8.51249 27.7821C9.20285 26.1154 10.3719 24.6909 11.8719 23.6886C13.3719 22.6864 15.1354 22.1514 16.9394 22.1514C18.0189 22.1514 18.8939 23.0265 18.8939 24.106C18.8939 25.1855 18.0189 26.0605 16.9394 26.0605C15.9085 26.0605 14.9008 26.3662 14.0437 26.9389C13.1866 27.5117 12.5185 28.3257 12.124 29.2781C11.7295 30.2305 11.6263 31.2784 11.8274 32.2895C12.0285 33.3005 12.5249 34.2293 13.2539 34.9582C13.9828 35.6871 14.9115 36.1835 15.9226 36.3846C16.9336 36.5857 17.9816 36.4825 18.934 36.088C19.8864 35.6935 20.7004 35.0255 21.2731 34.1684C21.8458 33.3112 22.1515 32.3035 22.1515 31.2727V9.77266C22.1515 8.69319 23.0266 7.81812 24.1061 7.81812Z" fill="#FF0050"/>
<path fill-rule="evenodd" clip-rule="evenodd" d="M23.2917 5.21216C24.3711 5.21216 25.2462 6.08724 25.2462 7.1667C25.2462 9.02422 25.9841 10.8057 27.2976 12.1191C28.611 13.4326 30.3925 14.1705 32.25 14.1705C33.3295 14.1705 34.2045 15.0456 34.2045 16.125C34.2045 17.2045 33.3295 18.0796 32.25 18.0796C29.6793 18.0796 27.202 17.1725 25.2462 15.5356V28.6667C25.2462 30.4707 24.7113 32.2342 23.709 33.7342C22.7068 35.2342 21.2822 36.4032 19.6155 37.0936C17.9489 37.784 16.1149 37.9646 14.3455 37.6127C12.5762 37.2607 10.951 36.392 9.67533 35.1164C8.3997 33.8408 7.53099 32.2155 7.17905 30.4462C6.82711 28.6768 7.00774 26.8429 7.6981 25.1762C8.38846 23.5095 9.55755 22.0849 11.0575 21.0827C12.5575 20.0804 14.321 19.5455 16.125 19.5455C17.2045 19.5455 18.0795 20.4206 18.0795 21.5C18.0795 22.5795 17.2045 23.4546 16.125 23.4546C15.0941 23.4546 14.0864 23.7603 13.2293 24.333C12.3722 24.9057 11.7041 25.7197 11.3096 26.6721C10.9151 27.6245 10.8119 28.6725 11.013 29.6835C11.2141 30.6946 11.7105 31.6233 12.4395 32.3522C13.1684 33.0812 14.0971 33.5776 15.1082 33.7787C16.1192 33.9798 17.1672 33.8766 18.1196 33.4821C19.072 33.0876 19.886 32.4195 20.4587 31.5624C21.0314 30.7053 21.3371 29.6976 21.3371 28.6667V7.1667C21.3371 6.08724 22.2122 5.21216 23.2917 5.21216Z" fill="black"/>
</svg>
