<svg width="35" height="39" viewBox="0 0 35 39" fill="none" xmlns="http://www.w3.org/2000/svg">
<g clip-path="url(#clip0_47_275)">
<path fill-rule="evenodd" clip-rule="evenodd" d="M31.1535 23.9811C31.1535 23.9811 33.9832 27.0952 34.6832 28.5363C34.6968 28.557 34.7075 28.5801 34.7147 28.6045C35 29.1369 35.07 29.5542 34.93 29.8623C34.6937 30.3712 33.894 30.6267 33.6227 30.6481H28.6212C28.273 30.6481 27.5485 30.5467 26.6665 29.8681C25.9927 29.3436 25.3225 28.4797 24.6732 27.6354C23.7037 26.3815 22.8655 25.2934 22.0167 25.2934C21.9095 25.2932 21.8031 25.3129 21.7017 25.3519C21.0595 25.5781 20.244 26.598 20.244 29.3143C20.244 30.1645 19.642 30.6481 19.2202 30.6481H16.9295C16.149 30.6481 12.0855 30.3439 8.48222 26.1105C4.06697 20.9274 0.101474 10.53 0.0629745 10.4383C-0.183776 9.76556 0.334224 9.39896 0.894224 9.39896H5.94472C6.62197 9.39896 6.84247 9.85526 6.99647 10.2648C7.17497 10.7347 7.83647 12.6145 8.92147 14.7264C10.6785 18.1623 11.7582 19.5604 12.621 19.5604C12.7831 19.5609 12.9424 19.5139 13.083 19.4239C14.21 18.7336 14 14.2486 13.9475 13.3243C13.9475 13.1449 13.9457 11.3217 13.3682 10.4403C12.9552 9.80846 12.2517 9.56276 11.8265 9.47306C11.9402 9.28976 12.1817 9.00896 12.4915 8.84321C13.2632 8.41421 14.658 8.35181 16.0422 8.35181H16.8105C18.312 8.37521 18.7005 8.48246 19.2465 8.63651C20.3455 8.92901 20.3665 9.72266 20.2702 12.4254C20.2422 13.1976 20.2125 14.0673 20.2125 15.091C20.2125 15.3094 20.2037 15.5532 20.2037 15.8008C20.1705 17.1873 20.1267 18.7492 21.0052 19.3908C21.1192 19.4698 21.2507 19.5117 21.385 19.5117C21.6895 19.5117 22.6012 19.5117 25.074 14.7829C26.159 12.6945 26.999 10.2316 27.0567 10.0464C27.1057 9.94301 27.2527 9.65246 27.4312 9.53546C27.5582 9.46018 27.7004 9.42257 27.8442 9.42626H33.7855C34.433 9.42626 34.8722 9.53546 34.958 9.80846C35.1015 10.2511 34.93 11.6025 32.2175 15.6897C31.7607 16.3702 31.36 16.9591 31.0082 17.4739C28.5495 21.0697 28.5495 21.2511 31.1535 23.9811Z" fill="#1A1A1A"/>
</g>
<defs>
<clipPath id="clip0_47_275">
<rect width="35" height="39" fill="white"/>
</clipPath>
</defs>
</svg>
