<svg width="35" height="169" viewBox="0 0 35 169" fill="none" xmlns="http://www.w3.org/2000/svg">
<path d="M0 12C0 5.37259 5.37258 0 12 0H23C29.6274 0 35 5.37258 35 12V169H0V12Z" fill="url(#paint0_linear_528_322)"/>
<path opacity="0.7" d="M20.222 158.448C20.2224 158.984 20.1303 159.463 19.9458 159.885C19.7612 160.305 19.505 160.637 19.177 160.882C18.8465 161.124 18.4638 161.255 18.0289 161.274L18.0279 160.047C18.2649 160.031 18.4706 159.952 18.6449 159.808C18.8167 159.662 18.9494 159.472 19.0429 159.238C19.1365 159.003 19.1832 158.743 19.1829 158.456C19.1827 158.141 19.1278 157.862 19.0182 157.62C18.9087 157.376 18.7562 157.184 18.5607 157.047C18.3627 156.909 18.1348 156.84 17.877 156.84C17.6088 156.84 17.3731 156.909 17.1701 157.048C16.9645 157.183 16.8032 157.383 16.6862 157.646C16.5692 157.906 16.5109 158.221 16.5112 158.591L16.5117 159.267L15.5273 159.268L15.5268 158.592C15.5266 158.295 15.473 158.035 15.366 157.811C15.2591 157.584 15.1105 157.407 14.9203 157.28C14.7275 157.152 14.5022 157.089 14.2444 157.089C13.997 157.089 13.7822 157.145 13.6 157.257C13.4152 157.367 13.2707 157.523 13.1667 157.727C13.0627 157.927 13.0108 158.164 13.0111 158.438C13.0113 158.698 13.0596 158.941 13.1562 159.168C13.2501 159.392 13.3856 159.574 13.5628 159.715C13.7374 159.855 13.9471 159.93 14.1919 159.941L14.1928 161.109C13.7605 161.096 13.3802 160.969 13.0519 160.727C12.7236 160.482 12.4668 160.159 12.2816 159.758C12.0964 159.358 12.0036 158.912 12.0032 158.423C12.0028 157.91 12.1027 157.467 12.303 157.094C12.5006 156.719 12.7647 156.43 13.0953 156.227C13.4258 156.021 13.7877 155.919 14.181 155.921C14.6289 155.918 15.0092 156.043 15.3219 156.295C15.6346 156.545 15.8445 156.878 15.9516 157.295L16.0141 157.295C16.0944 156.763 16.305 156.352 16.6459 156.06C16.9868 155.765 17.4099 155.619 17.9151 155.621C18.3552 155.618 18.7498 155.74 19.099 155.988C19.4481 156.232 19.7231 156.566 19.924 156.991C20.1222 157.415 20.2216 157.901 20.222 158.448ZM20.1086 153.358L20.1096 154.639L12.1074 151.766L12.1063 150.372L20.104 147.487L20.105 148.768L13.5599 151.035L13.56 151.097L20.1086 153.358ZM16.9756 153.145L16.9724 148.989L17.988 148.988L17.9913 153.145L16.9756 153.145ZM12.0992 141.349L13.1383 141.349L13.1412 145.13L20.1022 145.124L20.1031 146.331L12.1031 146.338L12.0992 141.349ZM20.0981 139.983L12.0981 139.989L12.0959 137.138C12.0954 136.515 12.2083 135.999 12.4345 135.59C12.6608 135.181 12.9704 134.875 13.3635 134.672C13.754 134.468 14.194 134.366 14.6836 134.366C15.1757 134.366 15.6185 134.468 16.0119 134.674C16.4027 134.876 16.7128 135.183 16.9423 135.595C17.1692 136.003 17.2829 136.518 17.2834 137.137L17.2849 139.098L16.2615 139.099L16.26 137.248C16.2597 136.854 16.1918 136.535 16.0562 136.291C15.918 136.046 15.7303 135.866 15.4932 135.752C15.2562 135.638 14.9866 135.581 14.6845 135.581C14.3824 135.581 14.1142 135.639 13.88 135.753C13.6457 135.868 13.4622 136.049 13.3296 136.297C13.197 136.542 13.1308 136.865 13.1311 137.266L13.1323 138.781L20.0972 138.776L20.0981 139.983ZM20.2015 132.38L19.139 132.381L19.1387 131.901C19.1385 131.7 19.1045 131.535 19.0367 131.405C18.9689 131.272 18.8777 131.164 18.763 131.081C18.6458 130.995 18.5181 130.923 18.38 130.866L18.0948 130.753L12.0931 133.57L12.0921 132.289L16.7154 130.188L12.089 128.324L12.088 127.058L18.7034 129.819C18.9691 129.936 19.2153 130.071 19.442 130.225C19.6687 130.375 19.8525 130.577 19.9933 130.83C20.1315 131.082 20.2008 131.417 20.2011 131.833L20.2015 132.38ZM20.1944 123.235C20.1948 123.771 20.1027 124.25 19.9181 124.672C19.7336 125.092 19.4773 125.424 19.1494 125.669C18.8188 125.912 18.4361 126.042 18.0013 126.061L18.0003 124.834C18.2373 124.818 18.4429 124.739 18.6173 124.595C18.7891 124.449 18.9217 124.259 19.0153 124.025C19.1088 123.79 19.1555 123.53 19.1553 123.243C19.155 122.928 19.1001 122.65 18.9906 122.408C18.881 122.163 18.7285 121.972 18.5331 121.834C18.3351 121.696 18.1072 121.627 17.8493 121.627C17.5811 121.627 17.3455 121.697 17.1425 121.835C16.9368 121.97 16.7755 122.17 16.6586 122.433C16.5416 122.693 16.4832 123.008 16.4835 123.378L16.4841 124.054L15.4997 124.055L15.4992 123.379C15.4989 123.082 15.4453 122.822 15.3384 122.598C15.2314 122.371 15.0829 122.194 14.8927 122.067C14.6998 121.94 14.4745 121.876 14.2167 121.876C13.9693 121.876 13.7545 121.932 13.5723 122.045C13.3875 122.154 13.2431 122.31 13.1391 122.514C13.0351 122.714 12.9832 122.951 12.9834 123.225C12.9836 123.485 13.032 123.729 13.1285 123.955C13.2224 124.179 13.358 124.361 13.5352 124.502C13.7098 124.642 13.9195 124.717 14.1643 124.728L14.1652 125.896C13.7329 125.883 13.3526 125.756 13.0243 125.514C12.6959 125.269 12.4392 124.947 12.254 124.546C12.0688 124.145 11.976 123.699 11.9756 123.21C11.9752 122.697 12.0751 122.254 12.2753 121.882C12.4729 121.506 12.737 121.217 13.0676 121.014C13.3982 120.808 13.7601 120.706 14.1533 120.708C14.6012 120.705 14.9815 120.83 15.2942 121.082C15.6069 121.332 15.8168 121.665 15.9239 122.082L15.9864 122.082C16.0667 121.55 16.2773 121.139 16.6183 120.847C16.9592 120.552 17.3822 120.406 17.8874 120.408C18.3275 120.405 18.7222 120.528 19.0713 120.775C19.4205 121.019 19.6955 121.354 19.8963 121.778C20.0946 122.202 20.1939 122.688 20.1944 123.235ZM20.0778 114.075L16.494 116.765L16.4946 117.617L20.0806 117.614L20.0815 118.821L12.0815 118.827L12.0806 117.62L15.4595 117.617L15.4592 117.223L12.0779 114.202L12.0767 112.729L15.6613 115.926L20.0766 112.602L20.0778 114.075ZM20.0752 110.808L20.0762 112.089L12.074 109.217L12.0729 107.822L20.0706 104.937L20.0716 106.218L13.5265 108.485L13.5266 108.548L20.0752 110.808ZM16.9422 110.596L16.939 106.439L17.9546 106.439L17.9579 110.595L16.9422 110.596ZM12.0674 100.877L12.0665 99.6815L17.9415 99.6769L17.9414 99.6027L12.0632 95.537L12.0624 94.4198L20.0623 94.4135L20.0633 95.6205L14.1961 95.6251L14.1962 95.6994L20.0665 99.7573L20.0674 100.871L12.0674 100.877ZM20.1682 89.9769C20.1687 90.5134 20.0766 90.9926 19.892 91.4146C19.7075 91.834 19.4512 92.1663 19.1233 92.4113C18.7927 92.6538 18.41 92.7843 17.9751 92.8028L17.9742 91.5763C18.2111 91.5605 18.4168 91.4809 18.5912 91.3375C18.7629 91.1915 18.8956 91.0013 18.9892 90.7669C19.0827 90.5324 19.1294 90.272 19.1292 89.9855C19.1289 89.6704 19.074 89.3918 18.9645 89.1497C18.8549 88.905 18.7024 88.7137 18.507 88.5759C18.309 88.438 18.081 88.3692 17.8232 88.3694C17.555 88.3696 17.3194 88.4388 17.1164 88.5769C16.9107 88.7125 16.7494 88.9119 16.6325 89.175C16.5155 89.4355 16.4571 89.7506 16.4574 90.1204L16.4579 90.7962L15.4736 90.797L15.473 90.1212C15.4728 89.8243 15.4192 89.564 15.3123 89.3401C15.2053 89.1136 15.0567 88.9366 14.8665 88.8092C14.6737 88.6817 14.4484 88.6181 14.1906 88.6183C13.9432 88.6185 13.7284 88.6747 13.5462 88.7868C13.3614 88.8963 13.217 89.0527 13.113 89.2559C13.009 89.4565 12.9571 89.6935 12.9573 89.9669C12.9575 90.2273 13.0059 90.4708 13.1024 90.6973C13.1963 90.9212 13.3319 91.1034 13.5091 91.2438C13.6837 91.3843 13.8934 91.4597 14.1382 91.4699L14.1391 92.6379C13.7068 92.6252 13.3265 92.4979 12.9982 92.256C12.6698 92.0114 12.4131 91.6887 12.2279 91.2878C12.0426 90.8869 11.9499 90.4417 11.9495 89.9521C11.9491 89.4391 12.049 88.9963 12.2492 88.6237C12.4468 88.2486 12.7109 87.9593 13.0415 87.7559C13.3721 87.5499 13.734 87.4481 14.1272 87.4504C14.5751 87.4474 14.9554 87.5721 15.2681 87.8245C15.5808 88.0742 15.7907 88.4074 15.8978 88.824L15.9603 88.8239C16.0406 88.2926 16.2512 87.881 16.5921 87.5891C16.9331 87.2945 17.3561 87.1484 17.8613 87.1506C18.3014 87.1476 18.6961 87.2697 19.0452 87.5168C19.3944 87.7614 19.6694 88.0958 19.8702 88.5201C20.0685 88.9444 20.1678 89.43 20.1682 89.9769ZM16.0499 78.6168C16.9041 78.6162 17.6386 78.7718 18.2534 79.0839C18.8657 79.3959 19.3374 79.8239 19.6685 80.3679C19.9971 80.9093 20.1616 81.5251 20.1621 82.2152C20.1627 82.9079 19.9991 83.5265 19.6714 84.071C19.3411 84.613 18.8688 85.0404 18.2545 85.3534C17.6401 85.6664 16.9072 85.8232 16.0556 85.8239C15.2014 85.8245 14.4682 85.6689 13.856 85.3568C13.2412 85.0448 12.7695 84.6181 12.4409 84.0767C12.1098 83.5327 11.9439 82.9143 11.9434 82.2216C11.9429 81.5315 12.1077 80.9155 12.438 80.3736C12.7657 79.8291 13.2368 79.4003 13.8511 79.0873C14.4628 78.7743 15.1958 78.6175 16.0499 78.6168ZM16.0509 79.8122C15.3998 79.8127 14.8517 79.9186 14.4066 80.1299C13.9588 80.3385 13.6205 80.6253 13.3917 80.99C13.1602 81.3522 13.0446 81.7624 13.045 82.2208C13.0453 82.6817 13.1615 83.0931 13.3936 83.4549C13.623 83.8167 13.9618 84.1029 14.4099 84.3134C14.8554 84.5214 15.4036 84.6252 16.0547 84.6247C16.7057 84.6241 17.2551 84.5195 17.7029 84.3109C18.148 84.0996 18.4863 83.8128 18.7178 83.4507C18.9467 83.0885 19.0609 82.677 19.0606 82.216C19.0602 81.7577 18.9453 81.3476 18.7159 80.9858C18.4838 80.6214 18.145 80.3353 17.6996 80.1273C17.2515 79.9167 16.7019 79.8116 16.0509 79.8122ZM20.0488 77.1088L12.0488 77.1151L12.0448 72.1268L13.0839 72.126L13.0869 75.9073L15.2744 75.9055L15.273 74.1165C15.2725 73.5227 15.3685 73.0187 15.5608 72.6045C15.7532 72.1877 16.0251 71.8698 16.3765 71.6508C16.7279 71.4291 17.1419 71.3181 17.6184 71.3178C18.095 71.3174 18.5157 71.4277 18.8804 71.6488C19.2452 71.8673 19.5306 72.1847 19.7366 72.6013C19.9427 73.0152 20.0459 73.519 20.0464 74.1127L20.0488 77.1088ZM19.0322 75.9026L19.0308 74.1135C19.0305 73.7698 18.9626 73.4795 18.827 73.2426C18.6914 73.0031 18.5154 72.8223 18.2992 72.7C18.083 72.5752 17.8511 72.5129 17.6037 72.5131C17.2444 72.5134 16.9359 72.6516 16.6783 72.9279C16.4181 73.2041 16.2882 73.6001 16.2886 74.1157L16.29 75.9047L19.0322 75.9026ZM20.0431 69.8901L12.0431 69.8964L12.0409 67.0448C12.0404 66.4224 12.1532 65.9067 12.3795 65.4977C12.6057 65.0886 12.9154 64.7824 13.3085 64.579C13.6989 64.3755 14.1389 64.2736 14.6285 64.2732C15.1207 64.2728 15.5635 64.3754 15.9569 64.5808C16.3477 64.7836 16.6578 65.0906 16.8873 65.5019C17.1142 65.9106 17.2279 66.4248 17.2284 67.0446L17.2299 69.0056L16.2065 69.0064L16.205 67.1548C16.2047 66.7616 16.1367 66.4426 16.0011 66.1979C15.8629 65.9532 15.6753 65.7737 15.4382 65.6593C15.2011 65.5449 14.9316 65.4878 14.6295 65.4881C14.3274 65.4883 14.0592 65.5458 13.8249 65.6606C13.5906 65.7753 13.4072 65.9565 13.2746 66.204C13.142 66.4489 13.0758 66.7718 13.0761 67.1729L13.0773 68.6885L20.0421 68.683L20.0431 69.8901ZM20.0377 63.0268L20.0387 64.308L12.0365 61.4354L12.0354 60.0409L20.0331 57.1557L20.0341 58.437L13.489 60.7038L13.4891 60.7663L20.0377 63.0268ZM16.9047 62.8144L16.9015 58.6582L17.9171 58.6574L17.9203 62.8136L16.9047 62.8144ZM12.0281 50.8192L20.0281 50.8129L20.0291 52.0082L12.0291 52.0145L12.0281 50.8192ZM20.0326 56.5746L15.8431 54.0154L12.0325 56.4012L12.0313 54.9247L15.4907 52.9376L15.4883 49.8634L12.0258 47.8973L12.0247 46.4247L15.8468 48.7967L20.0245 46.2465L20.0256 47.6567L16.6132 49.6711L16.6159 53.1437L20.0315 55.1801L20.0326 56.5746ZM20.0236 45.0649L12.0236 45.0712L12.0197 40.0555L13.0587 40.0547L13.0617 43.8633L15.4992 43.8614L15.4964 40.3145L16.5316 40.3137L16.5344 43.8606L18.9836 43.8587L18.9806 40.0032L20.0196 40.0024L20.0236 45.0649ZM20.0184 38.437L12.0184 38.4432L12.0175 37.2362L15.494 37.2335L15.4909 33.2452L12.0143 33.2479L12.0134 32.037L20.0134 32.0307L20.0143 33.2416L16.526 33.2444L16.5292 37.2327L20.0175 37.2299L20.0184 38.437ZM12.012 30.2792L12.0111 29.0839L17.8861 29.0793L17.886 29.005L12.0078 24.9393L12.0069 23.8221L20.0069 23.8159L20.0079 25.0229L14.1407 25.0275L14.1407 25.1017L20.0111 29.1596L20.012 30.2729L12.012 30.2792ZM20.0011 16.3833L20.002 17.5942L13.0372 17.5997L13.0384 19.1153C13.0387 19.5111 13.0988 19.8327 13.2188 20.08C13.3362 20.3273 13.5056 20.5081 13.7271 20.6226C13.9485 20.737 14.2103 20.7941 14.5124 20.7938C14.8118 20.7936 15.0683 20.7361 15.2818 20.6213C15.4952 20.5066 15.6578 20.3268 15.7696 20.0819C15.8814 19.837 15.9371 19.518 15.9368 19.1247L15.9352 17.0739L16.9743 17.0731L16.976 19.2372C16.9765 19.8544 16.874 20.3688 16.6686 20.7804C16.4632 21.1894 16.1757 21.4969 15.806 21.703C15.4338 21.9064 15.0029 22.0083 14.5133 22.0087C14.0211 22.009 13.5875 21.9078 13.2123 21.705C12.8345 21.5022 12.5387 21.1964 12.3249 20.7877C12.111 20.3764 12.0038 19.8622 12.0033 19.245L12.0011 16.3895L20.0011 16.3833ZM16.3948 20.3353L16.3938 18.9994L20.0047 20.9379L20.0057 22.309L16.3948 20.3353Z" fill="#768989"/>
<defs>
<linearGradient id="paint0_linear_528_322" x1="17.5" y1="0" x2="17.5" y2="169" gradientUnits="userSpaceOnUse">
<stop stop-color="#D1FFD6"/>
<stop offset="1" stop-color="#C1E9FE"/>
</linearGradient>
</defs>
</svg>
